<svg version="1.0" xmlns="http://www.w3.org/2000/svg" width="103" height="103" preserveAspectRatio="xMidYMid meet" style=""><rect id="backgroundrect" width="100%" height="100%" x="0" y="0" fill="none" stroke="none"/>
<metadata>
Created by potrace 1.15, written by Peter Selinger 2001-2017
</metadata>

<g class="currentLayer" style=""><title>Layer 1</title><g transform="translate(0, 103) scale(0.1, -0.1)" fill="#dc0c05" stroke="none" id="svg_1" class="" fill-opacity="1">
<path d="M403.0148620605469,828.5642280578613 l-3.037895679473877,-180.89523315429688 l-151.89479064941406,59.62468719482422 c-83.03581237792969,32.33881378173828 -155.9453125,59.62468719482422 -162.02110290527344,59.62468719482422 c-5.063159465789795,0 -27.341060638427734,-47.49763107299805 -47.59370040893555,-105.10114288330078 l-37.46738052368164,-106.11173248291016 l158.9832000732422,-52.55057144165039 c87.08634185791016,-28.296463012695312 162.02110290527344,-54.571746826171875 166.07162475585938,-58.61410140991211 c4.050527572631836,-3.031763792037964 -38.480010986328125,-66.69880676269531 -94.17476654052734,-139.4611358642578 c-54.68212127685547,-73.77291870117188 -100.25055694580078,-137.43995666503906 -100.25055694580078,-142.49290466308594 c0,-9.095291137695312 168.09689331054688,-133.39761352539062 180.24847412109375,-133.39761352539062 c4.050527572631836,1.0105879306793213 49.618961334228516,64.67762756347656 102.27581787109375,141.48231506347656 c52.6568603515625,77.81526947021484 98.22529602050781,141.48231506347656 101.26319122314453,141.48231506347656 c4.050527572631836,0 51.64422607421875,-63.66703796386719 107.33898162841797,-141.48231506347656 c55.69475555419922,-77.81526947021484 104.30108642578125,-141.48231506347656 109.36424255371094,-141.48231506347656 c17.21474266052246,0 178.22320556640625,127.33407592773438 174.1726837158203,138.45054626464844 c-2.025263786315918,7.074115753173828 -48.60633087158203,69.7305679321289 -102.27581787109375,139.4611358642578 c-53.669490814208984,70.74115753173828 -94.17476654052734,131.37643432617188 -89.11160278320312,135.4187774658203 c5.063159465789795,5.052939414978027 79.99791717529297,32.33881378173828 168.09689331054688,60.635276794433594 l157.9705810546875,52.55057144165039 l-35.442115783691406,106.11173248291016 c-19.240005493164062,57.603511810302734 -39.492645263671875,105.10114288330078 -44.55580139160156,105.10114288330078 c-7.088423252105713,0 -245.05691528320312,-87.92115020751953 -314.92852783203125,-116.21761322021484 c-17.21474266052246,-7.074115753173828 -18.227375030517578,5.052939414978027 -18.227375030517578,175.84230041503906 l0,182.91641235351562 l-111.38951110839844,0 l-111.38951110839844,0 l-2.025263786315918,-180.89523315429688 z" id="svg_2" fill="#dc0c05" fill-opacity="1"/>
</g></g></svg>